<?xml version="1.0" standalone="no"?><!DOCTYPE svg PUBLIC "-//W3C//DTD SVG 1.1//EN" "http://www.w3.org/Graphics/SVG/1.1/DTD/svg11.dtd"><svg t="1679295635106" class="icon" viewBox="0 0 1024 1024" version="1.1" xmlns="http://www.w3.org/2000/svg" p-id="1663" xmlns:xlink="http://www.w3.org/1999/xlink" width="200" height="200"><path d="M761.088 957.44H260.608c-50.944 0-92.16-41.216-92.16-92.16V516.864H105.728c-25.6 0-48.128-15.36-57.6-39.168-9.472-23.808-3.584-50.432 14.848-68.096 0.256-0.256 0.512-0.512 0.768-0.512L407.808 102.144c56.576-53.248 145.408-53.76 202.496-1.28l346.624 307.2 0.512 0.512c18.944 17.408 25.088 44.288 15.616 68.352-9.472 24.064-32 39.424-57.856 39.424h-61.696V865.28c-0.256 50.944-41.472 92.16-92.416 92.16zM105.472 455.424h93.696c16.896 0 30.72 13.824 30.72 30.72V865.28c0 16.896 13.824 30.72 30.72 30.72h500.48c16.896 0 30.72-13.824 30.72-30.72V485.632c0-16.896 13.824-30.72 30.72-30.72H915.456s0.256-0.512 0.256-0.768l-0.256-0.256-346.368-307.2-0.512-0.512c-33.536-30.976-86.016-30.72-119.04 0.768-0.256 0.256-0.512 0.512-0.768 0.512L105.216 454.4c0 0.256-0.256 0.256-0.256 0.256s0.256 0.512 0.512 0.768z m0 0z" fill="#040000" p-id="1664"></path><path d="M611.84 937.984c-16.896 0-30.72-13.824-30.72-30.72v-228.352c0-16.896-13.824-30.72-30.72-30.72h-81.408c-16.896 0-30.72 13.824-30.72 30.72v228.352c0 16.896-13.824 30.72-30.72 30.72s-30.72-13.824-30.72-30.72v-228.352c0-50.944 41.216-92.16 92.16-92.16H550.4c50.944 0 92.16 41.216 92.16 92.16v228.352c0 16.896-13.824 30.72-30.72 30.72z" fill="#040000" p-id="1665"></path></svg>